<svg width="86" height="16" viewBox="0 0 86 16" fill="none" xmlns="http://www.w3.org/2000/svg">
<path d="M0 11.392L4.128 0.191999H5.984L10.08 11.392H8.288L7.328 8.656H2.752L1.792 11.392H0ZM3.232 7.312H6.848L5.04 2.208L3.232 7.312ZM13.374 11.584C12.414 11.584 11.6567 11.2853 11.102 10.688C10.558 10.0907 10.286 9.2 10.286 8.016V3.456H11.982V7.84C11.982 9.376 12.6113 10.144 13.87 10.144C14.4993 10.144 15.0167 9.92 15.422 9.472C15.8273 9.024 16.03 8.384 16.03 7.552V3.456H17.726V11.392H16.222L16.094 10C15.8487 10.4907 15.486 10.88 15.006 11.168C14.5367 11.4453 13.9927 11.584 13.374 11.584ZM22.1715 8.96C21.7555 8.96 21.3715 8.912 21.0195 8.816L20.3315 9.488C20.4488 9.5627 20.5928 9.6267 20.7635 9.68C20.9342 9.7333 21.1742 9.7813 21.4835 9.824C21.7928 9.8667 22.2142 9.9093 22.7475 9.952C23.8035 10.048 24.5662 10.304 25.0355 10.72C25.5048 11.1253 25.7395 11.6693 25.7395 12.352C25.7395 12.8213 25.6115 13.264 25.3555 13.68C25.1102 14.1067 24.7208 14.448 24.1875 14.704C23.6648 14.9707 22.9928 15.104 22.1715 15.104C21.0622 15.104 20.1608 14.8907 19.4675 14.464C18.7848 14.048 18.4435 13.4133 18.4435 12.56C18.4435 12.2293 18.5288 11.8987 18.6995 11.568C18.8808 11.248 19.1635 10.944 19.5475 10.656C19.3235 10.56 19.1262 10.4587 18.9555 10.352C18.7955 10.2347 18.6515 10.1173 18.5235 10V9.616L19.8995 8.208C19.2808 7.6747 18.9715 6.976 18.9715 6.112C18.9715 5.5893 19.0942 5.1147 19.3395 4.688C19.5955 4.2507 19.9635 3.904 20.4435 3.648C20.9235 3.392 21.4995 3.264 22.1715 3.264C22.6195 3.264 23.0355 3.328 23.4195 3.456H26.3795V4.576L24.9715 4.656C25.2275 5.0933 25.3555 5.5787 25.3555 6.112C25.3555 6.6453 25.2275 7.1253 24.9715 7.552C24.7262 7.9787 24.3635 8.32 23.8835 8.576C23.4142 8.832 22.8435 8.96 22.1715 8.96ZM22.1715 7.632C22.6622 7.632 23.0568 7.504 23.3555 7.248C23.6648 6.9813 23.8195 6.608 23.8195 6.128C23.8195 5.6373 23.6648 5.264 23.3555 5.008C23.0568 4.752 22.6622 4.624 22.1715 4.624C21.6702 4.624 21.2648 4.752 20.9555 5.008C20.6568 5.264 20.5075 5.6373 20.5075 6.128C20.5075 6.608 20.6568 6.9813 20.9555 7.248C21.2648 7.504 21.6702 7.632 22.1715 7.632ZM20.0435 12.4C20.0435 12.8587 20.2462 13.2 20.6515 13.424C21.0568 13.6587 21.5635 13.776 22.1715 13.776C22.7582 13.776 23.2328 13.648 23.5955 13.392C23.9582 13.1467 24.1395 12.816 24.1395 12.4C24.1395 12.0907 24.0168 11.824 23.7715 11.6C23.5262 11.3867 23.0622 11.2533 22.3795 11.2C21.8675 11.168 21.4142 11.12 21.0195 11.056C20.6462 11.2587 20.3902 11.4773 20.2515 11.712C20.1128 11.9467 20.0435 12.176 20.0435 12.4ZM29.8603 11.584C28.9003 11.584 28.1429 11.2853 27.5883 10.688C27.0443 10.0907 26.7723 9.2 26.7723 8.016V3.456H28.4683V7.84C28.4683 9.376 29.0976 10.144 30.3563 10.144C30.9856 10.144 31.5029 9.92 31.9083 9.472C32.3136 9.024 32.5163 8.384 32.5163 7.552V3.456H34.2123V11.392H32.7083L32.5803 10C32.3349 10.4907 31.9723 10.88 31.4923 11.168C31.0229 11.4453 30.4789 11.584 29.8603 11.584ZM38.5778 11.584C37.5751 11.584 36.7484 11.3387 36.0977 10.848C35.4471 10.3573 35.0737 9.7067 34.9777 8.896H36.6897C36.7751 9.2587 36.9777 9.5733 37.2977 9.84C37.6177 10.096 38.0391 10.224 38.5617 10.224C39.0737 10.224 39.4471 10.1173 39.6818 9.904C39.9164 9.6907 40.0337 9.4453 40.0337 9.168C40.0337 8.7627 39.8684 8.4907 39.5378 8.352C39.2178 8.2027 38.7698 8.0693 38.1938 7.952C37.7458 7.856 37.2978 7.728 36.8497 7.568C36.4124 7.408 36.0444 7.184 35.7457 6.896C35.4577 6.5973 35.3137 6.1973 35.3137 5.696C35.3137 5.0027 35.5804 4.4267 36.1137 3.968C36.6471 3.4987 37.3938 3.264 38.3538 3.264C39.2391 3.264 39.9538 3.4773 40.4978 3.904C41.0524 4.3307 41.3777 4.9333 41.4738 5.712H39.8418C39.7884 5.3707 39.6284 5.104 39.3618 4.912C39.1058 4.72 38.7591 4.624 38.3218 4.624C37.8951 4.624 37.5644 4.7147 37.3297 4.896C37.0951 5.0667 36.9777 5.2907 36.9777 5.568C36.9777 5.8453 37.1377 6.064 37.4577 6.224C37.7884 6.384 38.2204 6.528 38.7538 6.656C39.2871 6.7733 39.7778 6.912 40.2258 7.072C40.6844 7.2213 41.0524 7.4453 41.3297 7.744C41.6071 8.0427 41.7458 8.48 41.7458 9.056C41.7564 9.7813 41.4738 10.384 40.8978 10.864C40.3324 11.344 39.5591 11.584 38.5778 11.584ZM45.6684 11.392C44.8897 11.392 44.271 11.2053 43.8124 10.832C43.3537 10.448 43.1244 9.7707 43.1244 8.8V4.88H41.7644V3.456H43.1244L43.3324 1.44H44.8204V3.456H47.0604V4.88H44.8204V8.8C44.8204 9.2373 44.911 9.5413 45.0924 9.712C45.2844 9.872 45.6097 9.952 46.0684 9.952H46.9804V11.392H45.6684ZM50.7604 11.392V10.176C51.4857 9.6 52.179 9.0187 52.84 8.432C53.502 7.8453 54.088 7.2693 54.6 6.704C55.123 6.128 55.534 5.568 55.832 5.024C56.131 4.4693 56.28 3.936 56.28 3.424C56.28 3.0827 56.222 2.7627 56.104 2.464C55.987 2.1547 55.795 1.9093 55.528 1.728C55.262 1.536 54.904 1.44 54.456 1.44C53.784 1.44 53.278 1.6533 52.936 2.08C52.606 2.5067 52.4457 3.0187 52.4564 3.616H50.8084C50.819 2.8267 50.9844 2.1653 51.3044 1.632C51.635 1.0987 52.0724 0.6933 52.616 0.416C53.171 0.1387 53.795 0 54.488 0C55.544 0 56.387 0.2987 57.016 0.896C57.656 1.4827 57.976 2.304 57.976 3.36C57.976 3.9893 57.822 4.6133 57.512 5.232C57.214 5.8507 56.819 6.448 56.328 7.024C55.848 7.5893 55.331 8.1227 54.776 8.624C54.222 9.1253 53.694 9.5787 53.192 9.984H58.312V11.392H50.7604ZM63.536 11.584C62.522 11.584 61.648 11.344 60.912 10.864C60.186 10.3733 59.626 9.696 59.232 8.832C58.848 7.9573 58.656 6.944 58.656 5.792C58.656 4.64 58.848 3.632 59.232 2.768C59.626 1.8933 60.186 1.216 60.912 0.736C61.648 0.2453 62.522 0 63.536 0C64.549 0 65.418 0.2453 66.144 0.736C66.869 1.216 67.424 1.8933 67.808 2.768C68.202 3.632 68.4 4.64 68.4 5.792C68.4 6.944 68.202 7.9573 67.808 8.832C67.424 9.696 66.869 10.3733 66.144 10.864C65.418 11.344 64.549 11.584 63.536 11.584ZM63.536 10.064C64.144 10.064 64.682 9.8933 65.152 9.552C65.632 9.2107 66.005 8.72 66.272 8.08C66.538 7.44 66.672 6.6773 66.672 5.792C66.672 4.9067 66.538 4.144 66.272 3.504C66.005 2.864 65.632 2.3733 65.152 2.032C64.682 1.6907 64.144 1.52 63.536 1.52C62.917 1.52 62.373 1.6907 61.904 2.032C61.434 2.3733 61.066 2.864 60.8 3.504C60.533 4.144 60.4 4.9067 60.4 5.792C60.4 6.6773 60.533 7.44 60.8 8.08C61.066 8.72 61.434 9.2107 61.904 9.552C62.373 9.8933 62.917 10.064 63.536 10.064ZM68.981 11.392V10.176C69.706 9.6 70.4 9.0187 71.061 8.432C71.722 7.8453 72.309 7.2693 72.821 6.704C73.344 6.128 73.754 5.568 74.053 5.024C74.352 4.4693 74.501 3.936 74.501 3.424C74.501 3.0827 74.442 2.7627 74.325 2.464C74.208 2.1547 74.016 1.9093 73.749 1.728C73.482 1.536 73.125 1.44 72.677 1.44C72.005 1.44 71.498 1.6533 71.157 2.08C70.826 2.5067 70.666 3.0187 70.677 3.616H69.029C69.04 2.8267 69.205 2.1653 69.525 1.632C69.856 1.0987 70.293 0.6933 70.837 0.416C71.392 0.1387 72.016 0 72.709 0C73.765 0 74.608 0.2987 75.237 0.896C75.877 1.4827 76.197 2.304 76.197 3.36C76.197 3.9893 76.042 4.6133 75.733 5.232C75.434 5.8507 75.04 6.448 74.549 7.024C74.069 7.5893 73.552 8.1227 72.997 8.624C72.442 9.1253 71.914 9.5787 71.413 9.984H76.533V11.392H68.981ZM82.302 11.392V9.152H76.686V7.808L82.03 0.191999H83.982V7.68H85.55V9.152H83.982V11.392H82.302ZM78.526 7.68H82.398V2.064L78.526 7.68Z" fill="white"/>
</svg>
