<svg width="22" height="22" viewBox="0 0 22 22" fill="none" xmlns="http://www.w3.org/2000/svg">
<path d="M10.9688 6.09375C10.0046 6.09375 9.06203 6.37966 8.26034 6.91534C7.45866 7.45101 6.83381 8.21238 6.46484 9.10317C6.09586 9.99396 5.99932 10.9742 6.18742 11.9198C6.37552 12.8655 6.83982 13.7341 7.5216 14.4159C8.20339 15.0977 9.07203 15.562 10.0177 15.7501C10.9633 15.9382 11.9435 15.8416 12.8343 15.4727C13.7251 15.1037 14.4865 14.4788 15.0222 13.6772C15.5578 12.8755 15.8438 11.9329 15.8438 10.9688C15.8424 9.67623 15.3284 8.43704 14.4144 7.52309C13.5005 6.60914 12.2613 6.09509 10.9688 6.09375ZM10.9688 13.4062C10.4867 13.4062 10.0154 13.2633 9.61455 12.9955C9.2137 12.7276 8.90128 12.3469 8.71679 11.9015C8.5323 11.4561 8.48403 10.966 8.57809 10.4932C8.67214 10.0204 8.90429 9.58607 9.24518 9.24518C9.58607 8.90429 10.0204 8.67214 10.4932 8.57809C10.966 8.48403 11.4561 8.5323 11.9015 8.71679C12.3469 8.90128 12.7276 9.2137 12.9955 9.61455C13.2633 10.0154 13.4062 10.4867 13.4062 10.9688C13.4062 11.6152 13.1494 12.2352 12.6923 12.6923C12.2352 13.1494 11.6152 13.4062 10.9688 13.4062ZM15.8438 0H6.09375C4.47816 0.00188156 2.92929 0.644504 1.7869 1.7869C0.644504 2.92929 0.00188156 4.47816 0 6.09375V15.8438C0.00188156 17.4593 0.644504 19.0082 1.7869 20.1506C2.92929 21.293 4.47816 21.9356 6.09375 21.9375H15.8438C17.4593 21.9356 19.0082 21.293 20.1506 20.1506C21.293 19.0082 21.9356 17.4593 21.9375 15.8438V6.09375C21.9356 4.47816 21.293 2.92929 20.1506 1.7869C19.0082 0.644504 17.4593 0.00188156 15.8438 0ZM19.5 15.8438C19.5 16.8134 19.1148 17.7434 18.4291 18.4291C17.7434 19.1148 16.8134 19.5 15.8438 19.5H6.09375C5.12405 19.5 4.19407 19.1148 3.50839 18.4291C2.82271 17.7434 2.4375 16.8134 2.4375 15.8438V6.09375C2.4375 5.12405 2.82271 4.19407 3.50839 3.50839C4.19407 2.82271 5.12405 2.4375 6.09375 2.4375H15.8438C16.8134 2.4375 17.7434 2.82271 18.4291 3.50839C19.1148 4.19407 19.5 5.12405 19.5 6.09375V15.8438ZM17.875 5.6875C17.875 6.00889 17.7797 6.32307 17.6011 6.5903C17.4226 6.85753 17.1688 7.06581 16.8719 7.1888C16.5749 7.3118 16.2482 7.34398 15.933 7.28128C15.6178 7.21858 15.3282 7.06381 15.101 6.83655C14.8737 6.60929 14.7189 6.31974 14.6562 6.00452C14.5935 5.6893 14.6257 5.36257 14.7487 5.06564C14.8717 4.76871 15.08 4.51492 15.3472 4.33636C15.6144 4.1578 15.9286 4.0625 16.25 4.0625C16.681 4.0625 17.0943 4.23371 17.399 4.53845C17.7038 4.8432 17.875 5.25652 17.875 5.6875Z" fill="#7551DC"/>
</svg>
