<svg width="20" height="20" viewBox="0 0 20 20" fill="none" xmlns="http://www.w3.org/2000/svg">
<path d="M9.75023 0C7.82223 0 5.93723 0.571804 4.33323 1.6432C2.73023 2.7145 1.48022 4.2373 0.742223 6.0188C0.00422305 7.8004 -0.188777 9.7608 0.187223 11.6521C0.564223 13.5434 1.49223 15.2807 2.85623 16.6443C4.21923 18.0079 5.95723 18.9365 7.84823 19.3127C9.73923 19.6889 11.7002 19.4958 13.4812 18.7578C15.2632 18.0199 16.7852 16.7702 17.8572 15.1668C18.9282 13.5634 19.5002 11.6784 19.5002 9.75C19.4972 7.165 18.4692 4.6866 16.6412 2.8587C14.8132 1.0308 12.3352 0.0027 9.75023 0ZM14.0312 8.0306L8.78122 13.2806C8.71122 13.3504 8.62823 13.4057 8.53723 13.4434C8.44623 13.4812 8.34923 13.5006 8.25023 13.5006C8.15123 13.5006 8.05422 13.4812 7.96322 13.4434C7.87222 13.4057 7.78923 13.3504 7.71923 13.2806L5.46923 11.0306C5.32923 10.8899 5.25023 10.699 5.25023 10.5C5.25023 10.301 5.32923 10.1101 5.46923 9.9694C5.61023 9.8286 5.80123 9.7496 6.00023 9.7496C6.19923 9.7496 6.39022 9.8286 6.53122 9.9694L8.25023 11.6897L12.9692 6.9694C13.0392 6.8997 13.1222 6.8444 13.2132 6.8067C13.3042 6.769 13.4012 6.7496 13.5002 6.7496C13.5992 6.7496 13.6962 6.769 13.7872 6.8067C13.8782 6.8444 13.9612 6.8997 14.0312 6.9694C14.1002 7.0391 14.1562 7.1218 14.1932 7.2128C14.2312 7.3039 14.2502 7.4015 14.2502 7.5C14.2502 7.5985 14.2312 7.6961 14.1932 7.7872C14.1562 7.8782 14.1002 7.9609 14.0312 8.0306Z" fill="#7551DC"/>
</svg>
