<svg width="37" height="11" viewBox="0 0 37 11" fill="none" xmlns="http://www.w3.org/2000/svg">
<path d="M2.646 10.094L0 0.280001H1.59599L3.54199 8.4L5.782 0.280001H7.42L9.59 8.4L11.536 0.280001H13.132L10.444 10.08H8.70799L6.56599 2.394L4.35399 10.08L2.646 10.094ZM16.121 10.248C15.44 10.248 14.833 10.0987 14.301 9.8C13.778 9.492 13.368 9.0673 13.069 8.526C12.77 7.9847 12.621 7.3547 12.621 6.636C12.621 5.908 12.766 5.2687 13.055 4.718C13.354 4.1673 13.764 3.738 14.287 3.43C14.819 3.122 15.435 2.968 16.135 2.968C16.816 2.968 17.409 3.122 17.913 3.43C18.417 3.7287 18.809 4.13 19.089 4.634C19.369 5.138 19.509 5.6933 19.509 6.3C19.509 6.3933 19.504 6.496 19.495 6.608C19.495 6.7107 19.49 6.8273 19.481 6.958H14.077C14.124 7.63 14.343 8.1433 14.735 8.498C15.136 8.8433 15.598 9.016 16.121 9.016C16.541 9.016 16.891 8.9227 17.171 8.736C17.46 8.54 17.675 8.2787 17.815 7.952H19.299C19.112 8.6053 18.739 9.1513 18.179 9.59C17.628 10.0287 16.942 10.248 16.121 10.248ZM16.121 4.186C15.626 4.186 15.188 4.3353 14.805 4.634C14.422 4.9233 14.189 5.362 14.105 5.95H18.025C17.997 5.4087 17.806 4.9793 17.451 4.662C17.096 4.3447 16.653 4.186 16.121 4.186ZM23.457 10.248C22.775 10.248 22.169 10.0987 21.637 9.8C21.114 9.492 20.703 9.0673 20.405 8.526C20.106 7.9847 19.957 7.3547 19.957 6.636C19.957 5.908 20.101 5.2687 20.391 4.718C20.689 4.1673 21.1 3.738 21.623 3.43C22.155 3.122 22.771 2.968 23.471 2.968C24.152 2.968 24.745 3.122 25.249 3.43C25.753 3.7287 26.145 4.13 26.425 4.634C26.705 5.138 26.845 5.6933 26.845 6.3C26.845 6.3933 26.84 6.496 26.831 6.608C26.831 6.7107 26.826 6.8273 26.817 6.958H21.413C21.459 7.63 21.679 8.1433 22.071 8.498C22.472 8.8433 22.934 9.016 23.457 9.016C23.877 9.016 24.227 8.9227 24.507 8.736C24.796 8.54 25.011 8.2787 25.151 7.952H26.635C26.448 8.6053 26.075 9.1513 25.515 9.59C24.964 10.0287 24.278 10.248 23.457 10.248ZM23.457 4.186C22.962 4.186 22.523 4.3353 22.141 4.634C21.758 4.9233 21.525 5.362 21.441 5.95H25.361C25.333 5.4087 25.141 4.9793 24.787 4.662C24.432 4.3447 23.989 4.186 23.457 4.186ZM27.545 10.08V0H29.029V6.006L31.689 3.136H33.467L30.513 6.286L33.901 10.08H32.025L29.029 6.524V10.08H27.545ZM35.274 10.08V1.96L33.692 2.324V1.232L35.862 0.280001H36.814V10.08H35.274Z" fill="white"/>
</svg>
