<svg width="19" height="21" viewBox="0 0 19 21" fill="none" xmlns="http://www.w3.org/2000/svg">
<path d="M18.5064 18.4397L12.3111 8.71L18.3764 2.03836C18.5892 1.79845 18.6989 1.48433 18.6817 1.16409C18.6645 0.843854 18.5217 0.543311 18.2844 0.327624C18.047 0.111937 17.7342 -0.00151115 17.4138 0.0118763C17.0934 0.0252637 16.7912 0.164408 16.5726 0.399141L10.9593 6.5782L7.13139 0.564688C7.02138 0.391723 6.86952 0.249299 6.68987 0.150595C6.51021 0.0518903 6.30856 9.45133e-05 6.10358 0H1.22858C1.01026 0.000100632 0.795973 0.058844 0.608122 0.17009C0.420271 0.281335 0.265751 0.440998 0.160713 0.63239C0.0556763 0.823782 0.00397878 1.03987 0.0110244 1.25808C0.01807 1.47629 0.0836001 1.6886 0.200765 1.87281L6.39608 11.6025L0.326703 18.2741C0.216812 18.3922 0.131444 18.5309 0.0755451 18.6821C0.0196466 18.8334 -0.00567003 18.9943 0.0010624 19.1554C0.00779483 19.3166 0.0464426 19.4748 0.114765 19.6209C0.183088 19.767 0.279727 19.898 0.399082 20.0065C0.518436 20.115 0.658132 20.1987 0.810073 20.2528C0.962013 20.3068 1.12318 20.3302 1.28422 20.3216C1.44527 20.3129 1.60299 20.2723 1.74825 20.2023C1.89351 20.1322 2.02342 20.034 2.13045 19.9134L7.74787 13.7343L11.5758 19.7478C11.6858 19.9208 11.8376 20.0632 12.0173 20.1619C12.1969 20.2606 12.3986 20.3124 12.6036 20.3125H17.4786C17.6969 20.3124 17.9112 20.2537 18.099 20.1424C18.2869 20.0312 18.4414 19.8715 18.5464 19.6801C18.6515 19.4887 18.7032 19.2726 18.6961 19.0544C18.6891 18.8362 18.6236 18.6239 18.5064 18.4397ZM13.2729 17.875L3.44873 2.4375H5.43428L15.2584 17.875H13.2729Z" fill="#7551DC"/>
</svg>
